<svg xmlns="http://www.w3.org/2000/svg" id="Capa_1" data-name="Capa 1" viewBox="0 0 350 150"><defs><style>      .cls-1 {        fill: #008a9b;      }    </style></defs><path class="cls-1" d="M63.39,85.79l1.67-19.83h-2.13c-.91,3.71-1.76,6.61-2.56,8.69s-1.93,3.88-3.39,5.39c-1.46,1.51-2.95,2.46-4.46,2.85-1.51.39-3.58.59-6.2.59h-13.62V27.4h10.1v-2.31H12.37v2.31h9.55v56.09h-9.55v2.31h51.02ZM85.98,43.58l-12.43-10.07,6.88-5.98,12.43,10.07-6.88,5.98ZM83.22,48.72l15.67-13.62-15.69-12.7-15.66,13.58c-1.05,2.39-1.6,5.03-1.6,7.93,0,5.44,1.79,9.95,5.36,13.54,3.58,3.59,7.78,5.39,12.62,5.39,3.39,0,6.47-1.07,9.24-3.2,2.76-2.13,4.64-5.44,5.63-9.91h-1.94c-2.25,7.39-6.56,11.08-12.93,11.08-3.09,0-5.24-1.03-6.44-3.09-1.13-1.93-1.63-6.91-1.51-14.87l7.25,5.87ZM97.11,41.29h1.67-1.67ZM129.8,60.67h21.23v-2.31h-4.35l-15.48-18.38,11.32-12.59h6.75v-2.31h-16.39v2.31h6.93l-10.01,11-9.1-11h6.02v-2.31h-22.04v2.31h5.12l14.44,17.34-12.4,13.63h-6.88v2.31h16.7v-2.31h-7.15l11.05-12.13,10.19,12.13h-5.93v2.31ZM169.91,17.08c.97-.93,1.45-2.11,1.45-3.53s-.49-2.51-1.47-3.46c-.98-.95-2.14-1.43-3.46-1.43s-2.48.48-3.46,1.45c-.98.97-1.47,2.11-1.47,3.44s.48,2.56,1.45,3.51c.96.95,2.13,1.43,3.48,1.43s2.52-.47,3.49-1.4M155.47,61.35h21.05v-2.31h-5.93V25.09c-2.72.45-5.61.68-8.69.68h-6.43v2.31h6.34v30.96h-6.34v2.31ZM221.62,85.79h28.56v-2.31h-9.01V27.4h9.01v-2.31h-21.23l-13.08,42.91h-.18l-12.99-42.91h-21.77v2.31h9.1v56.09h-9.1v2.31h20.69v-2.31h-9.28V26.36h.18l18.06,59.44h2.08l18.06-59.44h.18v57.13h-9.28v2.31ZM297.88,60.67h6.11v-2.31h-6.11V25.09h-16.07v2.31h7.24v13.63c0,5.97-1.18,10.45-3.53,13.42-2.35,2.97-4.92,4.46-7.7,4.46-1.87,0-3.03-.72-3.48-2.15-.45-1.43-.68-4.02-.68-7.76v-23.9h-15.39v2.31h6.56v20.01c0,5.67,1.02,9.39,3.06,11.16,2.04,1.77,4.73,2.65,8.08,2.65,5.82,0,10.1-2.81,12.81-8.42h.18v8.42c1.24-.36,4.21-.54,8.92-.54M332.92,35.95h1.86v-10.14h-1.4c-.63,1.18-1.25,2.08-1.86,2.72-2.35-2.29-5.27-3.44-8.74-3.44-3.29,0-6.07,1.05-8.35,3.15-2.28,2.1-3.42,4.7-3.42,7.81,0,6.31,4.24,10.08,12.72,11.32,4.98.72,8.03,1.51,9.17,2.35,1.13.85,1.7,2.1,1.7,3.76,0,1.99-.95,3.73-2.85,5.21-1.9,1.48-4.01,2.22-6.34,2.22-6.13,0-10.49-4.27-13.08-12.81h-1.58v13.35h1.58l3.17-2.72c3.2,2.81,6.5,4.21,9.91,4.21s6.38-1.18,8.71-3.53c2.34-2.35,3.51-5.3,3.51-8.83,0-7.09-4.51-11.19-13.54-12.31-4.1-.54-6.71-1.2-7.81-1.97-1.1-.77-1.65-1.82-1.65-3.15,0-1.57.78-2.96,2.33-4.19,1.55-1.22,3.49-1.83,5.82-1.83,5.37,0,8.75,2.94,10.14,8.83"></path><g><path class="cls-1" d="M118.64,135.04h-2.11v2.11h2.11v-2.11ZM113.14,122.08h-1.85v15.07h1.85v-15.07ZM101.75,128.56c.61-.69,1.38-1.04,2.3-1.04s1.67.35,2.29,1.04c.61.7.92,1.72.92,3.07,0,1.43-.3,2.5-.91,3.2-.61.7-1.38,1.05-2.29,1.05s-1.69-.35-2.3-1.04-.92-1.74-.92-3.14.31-2.44.92-3.14M100.34,135.93c.94.98,2.18,1.47,3.71,1.47.95,0,1.83-.22,2.64-.67.81-.44,1.42-1.07,1.84-1.88.42-.81.63-1.91.63-3.32,0-1.73-.48-3.09-1.43-4.08-.95-.98-2.18-1.47-3.68-1.47-1.35,0-2.49.4-3.43,1.21-1.12.97-1.69,2.47-1.69,4.49,0,1.84.47,3.26,1.41,4.24M90.58,124.62c0-.32.07-.57.22-.73.14-.17.33-.25.57-.25.21,0,.55.12,1.01.37.71.38,1.27.58,1.71.58.58,0,1.05-.2,1.42-.59.37-.39.57-.98.59-1.76h-1.34c-.05.36-.13.59-.25.71-.12.12-.28.18-.5.18-.24,0-.56-.1-.97-.31-.73-.37-1.31-.56-1.74-.56-.61,0-1.11.21-1.5.64-.4.42-.59.99-.59,1.71h1.37ZM89.76,137.15v-5.96c0-1.4.29-2.35.86-2.85.57-.5,1.25-.75,2.04-.75.49,0,.92.11,1.29.33.37.22.62.52.77.89.14.37.22.94.22,1.69v6.64h1.85v-6.71c0-.86-.03-1.46-.1-1.8-.11-.53-.3-.98-.58-1.37-.27-.38-.69-.69-1.24-.93-.55-.24-1.16-.35-1.81-.35-1.51,0-2.67.6-3.47,1.8v-1.55h-1.67v10.92h1.85ZM83.17,132.35c0,.82-.1,1.43-.3,1.85-.26.54-.67.97-1.22,1.28-.56.31-1.19.47-1.9.47s-1.27-.17-1.64-.49-.56-.74-.56-1.23c0-.32.09-.62.26-.88.17-.26.41-.47.73-.6.32-.14.85-.26,1.61-.37,1.34-.19,2.35-.43,3.02-.7v.68ZM83.7,137.15h1.93c-.23-.42-.39-.85-.47-1.31-.08-.46-.12-1.54-.12-3.26v-2.47c0-.82-.03-1.39-.09-1.71-.11-.51-.3-.93-.58-1.26-.27-.33-.7-.61-1.28-.83-.58-.22-1.34-.33-2.27-.33s-1.76.13-2.48.38c-.71.26-1.26.62-1.63,1.1-.38.48-.65,1.1-.81,1.88l1.81.25c.2-.77.51-1.31.92-1.62.41-.31,1.06-.46,1.93-.46.93,0,1.63.21,2.11.63.35.31.52.84.52,1.59,0,.07,0,.23,0,.48-.71.25-1.81.46-3.3.64-.73.09-1.28.18-1.64.28-.49.14-.94.34-1.33.61-.39.27-.71.62-.96,1.06-.24.44-.36.93-.36,1.46,0,.91.32,1.66.97,2.25.64.59,1.57.88,2.77.88.73,0,1.41-.12,2.04-.36.63-.24,1.29-.65,1.98-1.23.05.51.18.96.37,1.35M67.08,128.54c.61-.74,1.3-1.11,2.09-1.11s1.48.35,2.05,1.04c.57.69.86,1.73.86,3.12,0,1.46-.29,2.54-.88,3.23-.59.7-1.29,1.04-2.11,1.04s-1.5-.34-2.07-1.01c-.57-.67-.85-1.71-.85-3.11s.3-2.48.91-3.21M66.34,141.34v-5.32c.32.4.72.73,1.21.99.49.26,1.04.39,1.66.39.84,0,1.65-.24,2.41-.71.76-.48,1.35-1.16,1.75-2.06.4-.89.6-1.9.6-3.02,0-1.04-.18-2-.54-2.87-.36-.87-.9-1.55-1.61-2.03-.71-.48-1.53-.72-2.47-.72-.71,0-1.32.14-1.82.42-.5.28-.95.69-1.35,1.25v-1.42h-1.69v15.1h1.85ZM54.65,136.51c.74.59,1.83.88,3.24.88.86,0,1.63-.15,2.3-.45.68-.3,1.2-.72,1.56-1.26.36-.54.54-1.13.54-1.74s-.15-1.16-.44-1.58c-.29-.42-.7-.75-1.22-.97-.52-.22-1.43-.51-2.74-.86-.9-.25-1.45-.4-1.63-.47-.32-.13-.56-.29-.71-.49-.15-.19-.23-.41-.23-.65,0-.38.18-.71.54-.99s.97-.42,1.82-.42c.72,0,1.28.16,1.67.47.39.32.63.75.71,1.32l1.81-.25c-.12-.71-.33-1.27-.64-1.69-.31-.42-.79-.75-1.43-1-.65-.25-1.4-.37-2.26-.37-.57,0-1.1.07-1.6.22-.5.15-.89.33-1.18.54-.38.27-.69.62-.91,1.03-.22.41-.33.87-.33,1.35,0,.53.14,1.02.41,1.47.27.44.67.79,1.19,1.04.53.25,1.47.55,2.82.89,1.01.25,1.64.46,1.89.63.36.24.54.57.54.99,0,.47-.2.87-.62,1.22-.41.35-1.04.52-1.89.52s-1.5-.2-1.97-.59c-.47-.39-.76-.95-.86-1.69l-1.83.29c.2,1.16.68,2.03,1.42,2.62M44.62,128.36c.58-.57,1.29-.85,2.14-.85.94,0,1.7.36,2.29,1.07.38.46.62,1.15.7,2.07h-6.1c.06-.95.38-1.71.96-2.28M48.59,135.34c-.48.36-1.06.53-1.74.53-.91,0-1.67-.32-2.28-.96-.61-.64-.95-1.56-1.02-2.75h8.14c0-.22.01-.38.01-.49,0-1.8-.46-3.2-1.39-4.19-.93-.99-2.12-1.49-3.58-1.49s-2.74.51-3.68,1.52c-.95,1.01-1.42,2.44-1.42,4.28s.47,3.15,1.4,4.14c.94.98,2.2,1.47,3.8,1.47,1.27,0,2.31-.31,3.12-.93.82-.62,1.37-1.48,1.68-2.6l-1.91-.24c-.28.78-.66,1.35-1.14,1.71M26.55,137.15v-5.96c0-1.4.29-2.35.86-2.85.57-.5,1.25-.75,2.04-.75.49,0,.92.11,1.29.33.37.22.62.52.77.89.14.37.22.94.22,1.69v6.64h1.85v-6.71c0-.86-.03-1.46-.1-1.8-.11-.53-.3-.98-.57-1.37-.27-.38-.69-.69-1.24-.93-.55-.24-1.16-.35-1.81-.35-1.51,0-2.67.6-3.48,1.8v-1.55h-1.66v10.92h1.85ZM15.35,128.36c.58-.57,1.29-.85,2.14-.85.94,0,1.7.36,2.29,1.07.38.46.62,1.15.7,2.07h-6.1c.06-.95.38-1.71.96-2.28M19.32,135.34c-.48.36-1.06.53-1.74.53-.91,0-1.67-.32-2.28-.96-.61-.64-.95-1.56-1.02-2.75h8.14c0-.22.01-.38.01-.49,0-1.8-.46-3.2-1.39-4.19-.93-.99-2.12-1.49-3.58-1.49s-2.73.51-3.68,1.52c-.95,1.01-1.42,2.44-1.42,4.28s.47,3.15,1.4,4.14c.94.98,2.2,1.47,3.8,1.47,1.27,0,2.31-.31,3.13-.93.81-.62,1.37-1.48,1.68-2.6l-1.91-.24c-.28.78-.66,1.35-1.14,1.71"></path><path class="cls-1" d="M302,110.33c0,.82-.1,1.43-.3,1.85-.26.54-.67.97-1.22,1.28-.56.31-1.19.47-1.9.47s-1.27-.16-1.64-.49c-.37-.33-.56-.74-.56-1.23,0-.32.09-.62.26-.88.17-.26.41-.46.73-.6.32-.14.85-.26,1.61-.37,1.34-.19,2.35-.42,3.02-.7v.68ZM302.53,115.13h1.93c-.23-.42-.39-.86-.47-1.31-.08-.46-.12-1.54-.12-3.26v-2.47c0-.82-.03-1.39-.09-1.71-.11-.51-.3-.93-.58-1.26-.27-.33-.7-.61-1.29-.83-.58-.22-1.34-.33-2.27-.33s-1.76.13-2.48.38c-.71.26-1.26.62-1.63,1.1s-.65,1.1-.81,1.88l1.81.25c.2-.77.5-1.31.92-1.62.41-.3,1.06-.46,1.93-.46.93,0,1.63.21,2.11.63.35.31.52.84.52,1.59,0,.07,0,.23-.01.48-.71.25-1.81.46-3.3.64-.73.09-1.28.18-1.65.28-.49.14-.94.34-1.33.61-.39.27-.71.62-.96,1.06-.24.44-.37.93-.37,1.46,0,.91.32,1.66.97,2.25.64.59,1.56.88,2.76.88.73,0,1.41-.12,2.04-.36.63-.24,1.29-.65,1.98-1.23.06.51.18.96.37,1.35M290.71,113.19c-.49.45-1.09.67-1.82.67-.9,0-1.64-.33-2.2-1-.56-.66-.84-1.73-.84-3.2s.29-2.5.87-3.17c.58-.67,1.34-1,2.27-1,.62,0,1.14.18,1.58.56.44.37.74.92.91,1.65l1.8-.28c-.21-1.1-.7-1.96-1.45-2.55-.75-.6-1.72-.9-2.91-.9-.94,0-1.81.22-2.61.66-.8.44-1.39,1.11-1.78,1.99-.39.88-.59,1.92-.59,3.09,0,1.82.45,3.22,1.36,4.2.91.98,2.11,1.47,3.6,1.47,1.19,0,2.2-.35,3.02-1.06.82-.71,1.33-1.69,1.53-2.95l-1.82-.24c-.13.93-.44,1.61-.93,2.06M281.69,104.22h-1.85v10.92h1.85v-10.92ZM281.69,100.06h-1.85v2.13h1.85v-2.13ZM269.99,114.5c.74.59,1.83.88,3.24.88.86,0,1.63-.15,2.3-.45.68-.3,1.2-.72,1.56-1.26.36-.54.54-1.13.54-1.74s-.15-1.16-.44-1.58-.7-.75-1.22-.97-1.43-.51-2.74-.86c-.9-.25-1.45-.41-1.63-.47-.32-.13-.56-.29-.71-.49-.15-.19-.23-.41-.23-.65,0-.38.18-.71.54-.99.36-.28.97-.42,1.82-.42.72,0,1.28.16,1.67.47.39.32.63.75.71,1.32l1.81-.25c-.12-.71-.33-1.27-.64-1.69-.31-.42-.79-.75-1.44-1-.65-.25-1.4-.37-2.26-.37-.57,0-1.1.07-1.6.22-.5.15-.89.33-1.18.54-.38.27-.69.62-.91,1.03-.22.41-.33.87-.33,1.35,0,.53.14,1.02.41,1.47.27.44.67.79,1.19,1.04.53.25,1.47.55,2.82.89,1.01.25,1.64.46,1.89.63.36.24.54.57.54.99,0,.47-.2.87-.62,1.22-.41.35-1.04.52-1.89.52s-1.5-.2-1.97-.59c-.47-.39-.76-.95-.86-1.69l-1.83.29c.2,1.16.68,2.03,1.42,2.62M262.39,102.86l2.26-2.88h-2.43l-1.37,2.88h1.53ZM266.4,115.13v-10.92h-1.85v5.85c0,.93-.1,1.64-.3,2.13-.2.49-.55.88-1.03,1.16-.49.29-1.01.43-1.56.43s-1.02-.14-1.4-.42c-.38-.28-.62-.66-.74-1.15-.08-.34-.11-.99-.11-1.95v-6.06h-1.85v6.76c0,.79.04,1.36.11,1.73.11.54.3,1,.57,1.37.27.37.68.68,1.24.93.56.25,1.16.37,1.8.37,1.46,0,2.61-.62,3.46-1.85v1.6h1.66ZM241.91,115.13v-5.66c0-.99.1-1.75.3-2.28.2-.53.52-.93.96-1.2.44-.27.92-.41,1.44-.41.68,0,1.18.21,1.48.62.3.41.45,1.03.45,1.85v7.09h1.85v-6.34c0-1.12.25-1.94.76-2.45.51-.51,1.14-.77,1.91-.77.42,0,.8.1,1.11.3.32.2.53.46.65.79.12.32.18.86.18,1.6v6.88h1.84v-7.49c0-1.25-.29-2.17-.87-2.77-.58-.6-1.41-.9-2.5-.9-1.38,0-2.51.64-3.37,1.91-.21-.6-.58-1.07-1.09-1.41-.52-.34-1.18-.5-1.99-.5-.73,0-1.38.16-1.94.49-.57.33-1.02.76-1.37,1.29v-1.53h-1.66v10.92h1.85ZM229.47,110.33c0,.82-.1,1.43-.3,1.85-.26.54-.67.97-1.22,1.28-.56.31-1.19.47-1.9.47s-1.27-.16-1.64-.49-.56-.74-.56-1.23c0-.32.08-.62.26-.88.17-.26.41-.46.73-.6.32-.14.85-.26,1.61-.37,1.34-.19,2.35-.42,3.02-.7v.68ZM229.99,115.13h1.93c-.23-.42-.39-.86-.47-1.31-.08-.46-.12-1.54-.12-3.26v-2.47c0-.82-.03-1.39-.09-1.71-.11-.51-.3-.93-.58-1.26-.27-.33-.7-.61-1.28-.83-.58-.22-1.34-.33-2.27-.33s-1.77.13-2.48.38c-.71.26-1.26.62-1.63,1.1-.38.48-.65,1.1-.81,1.88l1.81.25c.2-.77.5-1.31.92-1.62.41-.3,1.06-.46,1.93-.46.93,0,1.63.21,2.11.63.35.31.52.84.52,1.59,0,.07,0,.23,0,.48-.71.25-1.81.46-3.3.64-.73.09-1.28.18-1.64.28-.49.14-.94.34-1.33.61-.39.27-.71.62-.96,1.06-.24.44-.36.93-.36,1.46,0,.91.32,1.66.97,2.25.64.59,1.57.88,2.77.88.73,0,1.41-.12,2.04-.36.63-.24,1.29-.65,1.98-1.23.05.51.18.96.37,1.35M219.63,100.06h-1.85v15.07h1.85v-15.07ZM202.62,106.34c.58-.57,1.29-.85,2.14-.85.94,0,1.7.36,2.29,1.07.38.46.62,1.15.7,2.07h-6.1c.06-.95.38-1.71.96-2.28M206.59,113.32c-.48.36-1.06.53-1.74.53-.91,0-1.67-.32-2.28-.96-.61-.64-.95-1.56-1.02-2.75h8.14c0-.22.01-.38.01-.49,0-1.8-.46-3.2-1.39-4.19-.93-.99-2.12-1.49-3.58-1.49s-2.73.51-3.68,1.52c-.95,1.01-1.42,2.44-1.42,4.28s.47,3.15,1.4,4.14c.93.98,2.2,1.47,3.8,1.47,1.27,0,2.31-.31,3.12-.93.82-.62,1.37-1.48,1.68-2.6l-1.91-.24c-.28.78-.66,1.35-1.14,1.71M190.61,106.51c.55-.67,1.24-1.01,2.06-1.01s1.55.35,2.13,1.05c.58.7.86,1.8.86,3.29,0,1.36-.28,2.37-.85,3.03-.57.66-1.25.99-2.06.99s-1.5-.35-2.09-1.04c-.59-.69-.88-1.74-.88-3.14s.28-2.51.83-3.18M197.35,115.13v-15.07h-1.84v5.41c-.32-.45-.74-.81-1.25-1.08-.51-.28-1.1-.42-1.76-.42-.9,0-1.71.24-2.44.71-.73.47-1.27,1.15-1.63,2.04-.36.89-.54,1.88-.54,2.97s.2,2.11.6,2.96c.4.86.97,1.53,1.7,2.01.73.48,1.53.72,2.4.72,1.34,0,2.36-.54,3.05-1.63v1.38h1.72ZM177.96,110.33c0,.82-.1,1.43-.3,1.85-.26.54-.67.97-1.22,1.28-.56.31-1.19.47-1.9.47s-1.27-.16-1.64-.49-.56-.74-.56-1.23c0-.32.08-.62.26-.88.17-.26.41-.46.73-.6.32-.14.85-.26,1.61-.37,1.34-.19,2.35-.42,3.02-.7v.68ZM178.49,115.13h1.93c-.23-.42-.39-.86-.47-1.31-.08-.46-.12-1.54-.12-3.26v-2.47c0-.82-.03-1.39-.09-1.71-.11-.51-.3-.93-.58-1.26-.27-.33-.7-.61-1.29-.83-.58-.22-1.34-.33-2.27-.33s-1.77.13-2.48.38c-.71.26-1.26.62-1.63,1.1s-.65,1.1-.81,1.88l1.81.25c.2-.77.5-1.31.92-1.62.41-.3,1.06-.46,1.93-.46.93,0,1.63.21,2.11.63.35.31.53.84.53,1.59,0,.07,0,.23-.01.48-.71.25-1.81.46-3.3.64-.73.09-1.28.18-1.64.28-.49.14-.94.34-1.33.61-.39.27-.71.62-.96,1.06-.24.44-.37.93-.37,1.46,0,.91.32,1.66.97,2.25.64.59,1.57.88,2.77.88.73,0,1.41-.12,2.04-.36.63-.24,1.29-.65,1.98-1.23.05.51.18.96.37,1.35M167.23,102.86l2.26-2.88h-2.43l-1.37,2.88h1.53ZM167.64,104.22h-1.85v10.92h1.85v-10.92ZM155.49,106.5c.58-.67,1.27-1,2.1-1s1.55.34,2.14,1.02c.59.68.89,1.69.89,3.02s-.29,2.42-.86,3.08c-.57.65-1.29.98-2.14.98s-1.57-.33-2.14-.99c-.57-.66-.85-1.7-.85-3.14,0-1.32.29-2.31.86-2.98M154.26,118.69c.8.59,1.85.88,3.16.88,1.1,0,2.02-.2,2.77-.62.75-.41,1.3-.97,1.65-1.68.35-.71.52-1.91.52-3.61v-9.44h-1.71v1.32c-.84-1.04-1.9-1.56-3.19-1.56-.97,0-1.81.24-2.52.72-.72.48-1.26,1.16-1.64,2.04-.38.88-.56,1.84-.56,2.88,0,1.51.41,2.81,1.23,3.9.82,1.08,1.98,1.62,3.48,1.62,1.21,0,2.21-.48,3.02-1.43,0,1.21-.04,2-.13,2.37-.16.62-.48,1.1-.95,1.44-.47.34-1.13.51-1.98.51-.8,0-1.42-.17-1.88-.51-.34-.25-.55-.66-.63-1.21l-1.8-.27c-.03,1.18.36,2.06,1.16,2.65M143.86,106.54c.61-.69,1.38-1.04,2.3-1.04s1.67.35,2.29,1.04c.61.7.92,1.72.92,3.07,0,1.43-.3,2.5-.91,3.2-.61.7-1.38,1.05-2.29,1.05s-1.69-.35-2.3-1.04c-.61-.7-.92-1.74-.92-3.14s.3-2.44.92-3.14M142.45,113.91c.94.98,2.18,1.47,3.71,1.47.95,0,1.83-.22,2.64-.67.8-.44,1.42-1.07,1.84-1.88s.63-1.91.63-3.32c0-1.73-.48-3.09-1.43-4.08-.95-.98-2.18-1.47-3.68-1.47-1.35,0-2.49.4-3.43,1.21-1.12.97-1.69,2.47-1.69,4.49,0,1.84.47,3.26,1.41,4.24M138.86,100.06h-1.85v15.07h1.85v-15.07ZM127.47,106.54c.61-.69,1.38-1.04,2.3-1.04s1.67.35,2.29,1.04c.61.7.92,1.72.92,3.07,0,1.43-.3,2.5-.91,3.2-.61.7-1.38,1.05-2.29,1.05s-1.69-.35-2.3-1.04c-.61-.7-.92-1.74-.92-3.14s.3-2.44.92-3.14M126.06,113.91c.94.98,2.18,1.47,3.71,1.47.95,0,1.83-.22,2.64-.67.8-.44,1.42-1.07,1.84-1.88.42-.8.63-1.91.63-3.32,0-1.73-.48-3.09-1.43-4.08-.95-.98-2.18-1.47-3.68-1.47-1.35,0-2.49.4-3.43,1.21-1.12.97-1.69,2.47-1.69,4.49,0,1.84.47,3.26,1.41,4.24M122.72,113.55c-.27,0-.49-.05-.63-.13s-.25-.21-.32-.36c-.07-.15-.1-.49-.1-1.02v-6.38h1.86v-1.44h-1.86v-3.81l-1.84,1.11v2.7h-1.36v1.44h1.36v6.28c0,1.11.08,1.84.23,2.18.15.35.41.62.78.84.37.21.89.32,1.56.32.41,0,.88-.05,1.4-.16l-.27-1.63c-.34.05-.61.07-.81.07M109.63,115.13v-5.96c0-1.4.29-2.35.86-2.85.57-.5,1.25-.75,2.04-.75.49,0,.92.11,1.29.33.37.22.62.52.77.89.14.37.22.94.22,1.69v6.64h1.85v-6.71c0-.86-.03-1.46-.1-1.8-.11-.53-.3-.98-.58-1.37-.27-.38-.69-.69-1.24-.93-.55-.24-1.16-.35-1.81-.35-1.51,0-2.67.6-3.47,1.8v-1.55h-1.67v10.92h1.85ZM98.2,106.54c.61-.69,1.38-1.04,2.3-1.04s1.67.35,2.29,1.04c.61.7.92,1.72.92,3.07,0,1.43-.3,2.5-.91,3.2-.61.7-1.37,1.05-2.29,1.05s-1.69-.35-2.3-1.04c-.61-.7-.92-1.74-.92-3.14s.31-2.44.92-3.14M96.8,113.91c.94.98,2.18,1.47,3.71,1.47.95,0,1.83-.22,2.64-.67.8-.44,1.42-1.07,1.84-1.88.42-.8.63-1.91.63-3.32,0-1.73-.48-3.09-1.43-4.08s-2.18-1.47-3.68-1.47c-1.35,0-2.5.4-3.43,1.21-1.12.97-1.69,2.47-1.69,4.49,0,1.84.47,3.26,1.41,4.24M80.81,119.56c.59,0,1.1-.14,1.52-.43.42-.29.8-.73,1.13-1.34.25-.45.59-1.28,1.04-2.48l4.15-11.1h-1.85l-2.33,6.36c-.29.81-.55,1.64-.76,2.49-.23-.88-.5-1.73-.79-2.53l-2.27-6.32h-1.99l4.14,10.94c-.08.2-.13.35-.17.45-.26.73-.45,1.19-.56,1.38-.16.25-.36.44-.61.58-.25.14-.58.21-.99.21-.3,0-.65-.05-1.06-.17l.2,1.74c.44.15.84.23,1.19.23M64.27,106.54c.61-.69,1.38-1.04,2.3-1.04s1.67.35,2.29,1.04c.61.7.92,1.72.92,3.07,0,1.43-.31,2.5-.92,3.2-.61.7-1.37,1.05-2.29,1.05s-1.69-.35-2.3-1.04c-.61-.7-.91-1.74-.91-3.14s.3-2.44.91-3.14M62.86,113.91c.94.98,2.18,1.47,3.71,1.47.95,0,1.83-.22,2.64-.67.81-.44,1.42-1.07,1.84-1.88.42-.8.63-1.91.63-3.32,0-1.73-.48-3.09-1.43-4.08-.95-.98-2.18-1.47-3.68-1.47-1.35,0-2.49.4-3.43,1.21-1.12.97-1.69,2.47-1.69,4.49,0,1.84.47,3.26,1.41,4.24M57.81,113.19c-.49.45-1.09.67-1.82.67-.9,0-1.64-.33-2.2-1-.56-.66-.84-1.73-.84-3.2s.29-2.5.87-3.17c.58-.67,1.34-1,2.27-1,.62,0,1.14.18,1.58.56.44.37.74.92.91,1.65l1.8-.28c-.21-1.1-.69-1.96-1.45-2.55-.75-.6-1.72-.9-2.91-.9-.94,0-1.81.22-2.61.66-.8.44-1.39,1.11-1.78,1.99-.39.88-.59,1.92-.59,3.09,0,1.82.45,3.22,1.36,4.2.91.98,2.11,1.47,3.6,1.47,1.19,0,2.2-.35,3.02-1.06.82-.71,1.33-1.69,1.53-2.95l-1.82-.24c-.13.93-.44,1.61-.93,2.06M48.79,104.22h-1.85v10.92h1.85v-10.92ZM48.79,100.06h-1.85v2.13h1.85v-2.13ZM37.41,115.13l2.87-4.31.6.92,2.24,3.39h2.27l-4.06-5.78,3.77-5.14h-2.21l-1.84,2.58c-.25.35-.53.75-.83,1.2-.19-.33-.44-.74-.76-1.22l-1.68-2.56h-2.31l3.69,5.24-3.99,5.67h2.24ZM29.62,102.86l2.26-2.88h-2.43l-1.37,2.88h1.53ZM27.06,106.34c.58-.57,1.29-.85,2.14-.85.94,0,1.7.36,2.29,1.07.38.46.62,1.15.7,2.07h-6.1c.06-.95.38-1.71.96-2.28M31.03,113.32c-.48.36-1.06.53-1.74.53-.91,0-1.67-.32-2.28-.96-.61-.64-.95-1.56-1.02-2.75h8.14c0-.22,0-.38,0-.49,0-1.8-.46-3.2-1.39-4.19s-2.12-1.49-3.58-1.49-2.73.51-3.68,1.52c-.95,1.01-1.42,2.44-1.42,4.28s.47,3.15,1.4,4.14c.93.98,2.2,1.47,3.8,1.47,1.27,0,2.31-.31,3.12-.93s1.37-1.48,1.68-2.6l-1.91-.24c-.28.78-.66,1.35-1.14,1.71M22.56,115.13v-1.78h-7.42v-13.29h-1.99v15.07h9.42Z"></path></g></svg>